#N canvas 608 111 381 324 12;
#X obj 106 87 netreceive -u -b 5000;
#X obj 20 176 print;
#X msg 106 62 listen 5000;
#X obj 106 112 oscparse;
#X obj 106 139 list trim;
#X obj 106 176 route photocell pot1 but1 but2;
#X obj 106 202 nbx 5 14 -1e+37 1e+37 0 0 empty empty empty 0 -8 0 10
-262144 -1 -1 0.971666 256;
#X obj 156 221 nbx 5 14 -1e+37 1e+37 0 0 empty empty empty 0 -8 0 10
-262144 -1 -1 0.507572 256;
#X obj 209 202 tgl 15 0 empty empty empty 17 7 0 10 -262144 -1 -1 0
1;
#X obj 261 202 tgl 15 0 empty empty empty 17 7 0 10 -262144 -1 -1 0
1;
#X connect 0 0 3 0;
#X connect 2 0 0 0;
#X connect 3 0 4 0;
#X connect 3 0 1 0;
#X connect 4 0 5 0;
#X connect 5 0 6 0;
#X connect 5 1 7 0;
#X connect 5 2 8 0;
#X connect 5 3 9 0;
